<svg version="1.2" baseProfile="tiny" viewBox="0 0 217.902 118.434" xmlns:xlink="http://www.w3.org/1999/xlink" xmlns="http://www.w3.org/2000/svg">
<path style="fill:#ffffff;" d="M215.7121,52.137L183.9027,52.137L183.9027,25.1021L181.6257,25.1021L181.6257,13.9586C181.6257,13.3499,181.2225,12.8536,180.7323,12.8536L144.2424,9.8809L144.2424,9.8656C142.0634,9.8656,142.0634,8.2371,142.0634,8.2371L142.0634,8.211C142.0634,8.3105,141.8651,8.0121,141.5579,7.485C141.353,7.1345,141.0981,6.6797,140.817,6.174C139.6251,4.0386,137.993,0.9996,137.86,0.9996L137.86,0.9996L56.6371,0.9996L56.6371,0.9996L56.6371,0.9996C56.502,0.9996,54.8699,4.0386,53.678,6.1751C53.3991,6.6809,53.1419,7.1345,52.9371,7.4862C52.6299,8.0121,52.4316,8.3105,52.4316,8.2122L52.4316,8.2371C52.4316,9.8656,52.4316,9.8656,50.2526,9.8656L50.2526,9.8809L35.6161,11.4147L35.6161,5.2845C35.6161,5.2845,18.2428,1.6356,11.7013,5.5024C5.1621,9.3705,1.0002,12.5528,1.0002,57.3185L1.0002,57.3398C1.0002,102.1031,5.1621,105.2902,11.7035,109.1535C18.2449,113.0216,35.6161,109.3738,35.6161,109.3738L35.6161,103.265L50.2526,104.7987C52.4338,104.7987,52.4338,106.6238,52.4338,106.6238L52.4338,117.4344L142.0656,117.4344L142.0656,106.6238C142.0656,106.6238,142.0656,104.7987,144.2446,104.7987L180.7345,101.826C181.2247,101.826,181.6279,101.3274,181.6279,100.721L181.6279,89.5776L183.9049,89.5776L183.9049,62.5414L215.7143,62.5414C216.368,62.5414,216.904,62.0073,216.904,61.3535L216.904,53.3273C216.9018,52.6723,216.368,52.137,215.7121,52.137Z"/>
</svg>